HIERARCHY
ROOT Hips
{
	OFFSET -3.958830 18.904000 13.208200
	CHANNELS 6 Xposition Yposition Zposition Zrotation Yrotation Xrotation 
	JOINT LHipJoint
	{
		OFFSET 0.000000 0.000000 0.000000
		CHANNELS 3 Zrotation Yrotation Xrotation
		JOINT LeftUpLeg
		{
			OFFSET 1.800000 -1.400000 0.085000
			CHANNELS 3 Zrotation Yrotation Xrotation
			JOINT LeftLeg
			{
				OFFSET 2.215000 -6.000000 0.000000
				CHANNELS 3 Zrotation Yrotation Xrotation
				JOINT LeftFoot
				{
					OFFSET 2.500000 -6.900000 0.000000
					CHANNELS 3 Zrotation Yrotation Xrotation
					JOINT LeftToeBase
					{
						OFFSET 0.200000 -0.500000 1.950000
						CHANNELS 3 Zrotation Yrotation Xrotation
						End Site
						{
							OFFSET 0.000000 0.000000 0.000000
						}
					}
				}
			}
		}
	}
	JOINT RHipJoint
	{
		OFFSET 0.000000 0.000000 0.000000
		CHANNELS 3 Zrotation Yrotation Xrotation
		JOINT RightUpLeg
		{
			OFFSET -1.800000 -1.400000 0.085000
			CHANNELS 3 Zrotation Yrotation Xrotation
			JOINT RightLeg
			{
				OFFSET -2.215000 -6.000000 0.000000
				CHANNELS 3 Zrotation Yrotation Xrotation
				JOINT RightFoot
				{
					OFFSET -2.500000 -6.900000 0.000000
					CHANNELS 3 Zrotation Yrotation Xrotation
					JOINT RightToeBase
					{
						OFFSET -0.200000 -0.500000 1.950000
						CHANNELS 3 Zrotation Yrotation Xrotation
						End Site
						{
							OFFSET 0.000000 0.000000 0.000000
						}
					}
				}
			}
		}
	}
	JOINT LowerBack
	{
		OFFSET 0.000000 0.000000 0.000000
		CHANNELS 3 Zrotation Yrotation Xrotation
		JOINT Spine
		{
			OFFSET -0.087000 1.940000 -0.288900
			CHANNELS 3 Zrotation Yrotation Xrotation
			JOINT Spine1
			{
				OFFSET 0.000000 1.950000 0.060000
				CHANNELS 3 Zrotation Yrotation Xrotation
				JOINT Neck
				{
					OFFSET 0.000000 0.000000 0.000000
					CHANNELS 3 Zrotation Yrotation Xrotation
					JOINT Neck1
					{
						OFFSET 0.000000 1.600000 0.340000
						CHANNELS 3 Zrotation Yrotation Xrotation
						JOINT Head
						{
							OFFSET 0.000000 1.667000 -0.240000
							CHANNELS 3 Zrotation Yrotation Xrotation
							End Site
							{
								OFFSET 0.000000 0.000000 0.000000
							}
						}
					}
				}
				JOINT LeftShoulder
				{
					OFFSET 0.000000 0.000000 0.000000
					CHANNELS 3 Zrotation Yrotation Xrotation
					JOINT LeftArm
					{
						OFFSET 2.700000 1.550000 -0.730000
						CHANNELS 3 Zrotation Yrotation Xrotation
						JOINT LeftForeArm
						{
							OFFSET 5.450000 0.000000 0.000000
							CHANNELS 3 Zrotation Yrotation Xrotation
							JOINT LeftHand
							{
								OFFSET 3.450000 0.000000 0.000000
								CHANNELS 3 Zrotation Yrotation Xrotation
								JOINT LeftHandIndex1
								{
									OFFSET 0.750000 0.000000 0.000000
									CHANNELS 3 Zrotation Yrotation Xrotation
									End Site
									{
										OFFSET 0.000000 0.000000 0.000000
									}
								}
							}
						}
					}
				}
				JOINT RightShoulder
				{
					OFFSET 0.000000 0.000000 0.000000
					CHANNELS 3 Zrotation Yrotation Xrotation
					JOINT RightArm
					{
						OFFSET -2.700000 1.550000 -0.730000
						CHANNELS 3 Zrotation Yrotation Xrotation
						JOINT RightForeArm
						{
							OFFSET -5.450000 0.000000 0.000000
							CHANNELS 3 Zrotation Yrotation Xrotation
							JOINT RightHand
							{
								OFFSET -3.450000 0.000000 0.000000
								CHANNELS 3 Zrotation Yrotation Xrotation
								JOINT RightHandIndex1
								{
									OFFSET -0.750000 0.000000 0.000000
									CHANNELS 3 Zrotation Yrotation Xrotation
									End Site
									{
										OFFSET 0.000000 0.000000 0.000000
									}
								}
							}
						}
					}
				}
			}
		}
	}
}
MOTION
Frames: 8
Frame Time: 0.016667
0.405770 17.473250 -1.928490 -12.163355 -12.149602 -4.246586 -14.945051 12.057181 1.542033 4.160689 -1.415942 -11.121166 -3.233581 6.019928 21.144322 -1.039566 4.483115 3.206901 0.810220 0.485810 0.604520 18.948375 -8.405839 6.176141 2.648706 21.031358 -53.818176 -9.320799 -26.376718 119.962342 -4.165034 -18.617919 -0.659059 0.479350 0.201810 -0.019530 -4.944676 -1.674954 -8.522527 23.144343 -13.399230 35.502743 -12.122167 -6.961546 7.859782 1.490420 -8.491075 -5.869281 -16.571982 8.511625 29.473182 -4.282630 3.836090 -22.849670 -25.715076 -6.631892 -0.586676 -5.539584 5.080131 -8.366290 -13.607456 -75.672238 5.753499 -3.467366 3.124554 0.895060 0.050630 -0.033460 0.289810 22.459995 7.754416 5.380080 14.505957 -12.366218 -10.602351 18.659806 58.502335 6.492915 1.524972 -1.850049 -0.496810 0.571000 -0.193650 -0.412800 
0.371110 17.388480 -1.853800 -11.208189 -14.274309 -4.140353 -14.914865 12.234465 1.720715 2.453950 -1.365941 -10.953591 -2.352152 5.606800 20.762062 -1.095313 4.383041 3.249559 0.817600 0.475290 0.573120 18.888285 -8.824448 5.677454 2.428574 18.014536 -45.975010 -7.622296 -28.283116 118.054505 -4.156564 -18.656870 -0.687961 0.499620 0.250750 0.006240 -4.913312 -1.691973 -8.336676 22.164261 -11.592835 32.438331 -11.458352 -6.252192 7.930324 1.043413 -8.633929 -5.516359 -17.185625 8.477577 30.115337 -3.010210 3.055510 -21.142340 -26.883318 -6.642294 -1.013930 -8.315514 2.406405 -8.666377 -14.697053 -71.098485 5.871683 -3.497165 3.137223 0.876820 0.085830 -0.077440 0.297720 24.320174 7.960348 5.320802 14.771947 -12.045692 -10.726885 15.996014 54.702969 4.608313 1.472851 -1.860412 -0.503300 0.569080 -0.159400 -0.408600 
0.319400 17.288120 -1.776930 -10.073918 -16.497241 -3.685518 -14.894620 12.362582 1.982629 1.308512 -1.828862 -12.147027 -3.080196 5.913994 22.484964 -1.125746 4.600542 3.126620 0.905240 0.573400 0.580230 18.826626 -9.267969 5.079187 1.116134 14.524909 -38.193461 -4.081211 -28.618040 110.523604 -3.969211 -18.109265 -0.652916 0.592670 0.273430 0.056070 -4.859805 -1.685324 -8.106721 20.172211 -9.545461 27.930062 -10.360249 -5.475935 8.974638 0.545770 -8.337511 -4.671353 -16.647826 8.845865 30.303680 -1.933380 2.976430 -19.545040 -28.097484 -6.053107 -1.422298 -12.429049 0.031368 -8.987873 -11.669275 -67.608461 3.351618 -3.530332 3.188610 0.828310 0.132110 -0.108810 0.322190 26.383023 7.410768 4.453599 15.089627 -8.966769 -10.061742 13.502809 49.232192 3.041001 1.417818 -1.907373 -0.475690 0.532060 -0.164870 -0.400920 
0.258870 17.166610 -1.689440 -8.870930 -19.436568 -3.077216 -14.887390 12.405137 2.311446 0.710484 -2.796620 -14.148337 -4.962696 7.224728 27.267553 -1.067683 5.476443 2.794995 0.924120 0.581400 0.559050 18.781443 -9.718227 4.419495 0.368448 11.577024 -30.609237 -1.927648 -26.128189 101.636822 -3.580677 -16.948454 -0.475986 0.659430 0.382590 0.096240 -4.822516 -1.536214 -7.846989 18.309113 -7.169389 22.726110 -9.272286 -4.116573 9.945841 0.190830 -7.634076 -3.538358 -15.216651 9.119575 30.294691 -1.724640 3.269100 -15.976250 -29.302547 -4.529989 -2.122881 -16.978079 -2.480538 -8.676300 -10.992647 -65.880495 2.726831 -3.652929 3.215347 0.748170 0.244560 -0.202660 0.347800 28.045081 5.789014 3.353073 16.468067 -6.548282 -9.350795 11.225474 45.090762 1.893713 1.353765 -1.948689 -0.504900 0.534480 -0.138390 -0.396230 
0.170380 16.989100 -1.563780 -7.201864 -22.426456 -0.389967 -14.931269 12.226159 2.534145 -0.325319 -3.610104 -17.181556 -6.511007 7.874638 28.329083 -1.091595 5.899007 2.738780 0.812170 0.464810 0.475350 18.779265 -10.024638 3.801423 -0.630639 9.577543 -26.348461 -1.558967 -22.469899 94.006056 -3.079573 -15.798159 -0.226232 0.698590 0.670510 0.115070 -4.842786 -1.147206 -7.330241 16.413571 -4.292822 13.083978 -8.457638 -2.447455 11.093970 0.058605 -6.404755 -1.932217 -12.437972 9.872776 29.116053 -3.571950 5.009760 -8.935030 -28.378162 -0.248665 -3.173385 -24.519282 -5.450088 -7.071437 -7.938067 -64.426518 1.208469 -3.977396 3.117158 0.541040 0.527960 -0.425710 0.378840 27.168163 1.239587 1.321761 21.153171 -3.391604 -7.826527 10.078403 40.943092 1.289845 1.296748 -1.935363 -0.618220 0.611570 -0.073570 -0.377230 
0.083050 16.856050 -1.472300 -6.584971 -26.230806 0.547584 -14.961557 12.218986 2.697637 0.509488 -3.918968 -18.259292 -8.676179 9.045332 29.489413 -0.884475 6.449349 2.583461 0.643250 0.295480 0.333970 18.740560 -10.414074 3.218316 -1.038874 7.527601 -20.237295 -0.347712 -19.567979 84.458805 -2.562537 -14.415032 0.114753 0.605840 0.834030 0.171790 -4.791386 -0.767751 -6.845158 15.118412 -2.348001 7.661964 -8.151928 -1.230111 11.322975 0.378241 -5.526531 -1.462500 -10.428757 11.331947 29.215652 -4.327880 7.719420 -3.050140 -26.971615 3.016633 -3.034562 -32.130530 -5.516466 -7.024538 -2.025394 -67.026903 -2.455524 -4.164233 3.168494 0.339750 0.717470 -0.575260 0.371110 25.182241 -2.030380 0.052963 28.372930 -0.795289 -7.147672 7.558699 36.465321 0.280324 1.368395 -1.893384 -0.609900 0.527910 -0.005440 -0.333390 
0.015490 16.755300 -1.431940 -6.434937 -31.144423 0.874647 -14.933297 12.210701 2.940143 1.526953 -4.260824 -19.523552 -10.514719 10.434539 31.914801 -0.572019 7.074114 2.383723 0.536480 0.218190 0.182600 18.724082 -10.849409 2.776980 -1.071552 5.669420 -13.507079 0.446947 -16.514803 74.329218 -2.102581 -12.807539 0.583922 0.499400 0.903470 0.212420 -4.863562 -0.277614 -6.602542 14.977726 -0.524052 5.765853 -8.366165 0.217733 10.326776 0.714689 -5.490694 -1.526418 -9.996832 12.082544 29.357201 -3.870800 8.970190 0.198710 -26.448134 5.434265 -2.626762 -38.002191 -4.595775 -7.397652 1.488130 -71.544802 -5.203088 -4.157002 3.254919 0.242290 0.772600 -0.603460 0.416350 23.811887 -3.916499 -0.464447 34.200717 0.281921 -7.084519 6.253715 33.741159 -0.208187 1.476851 -1.860489 -0.547160 0.446150 0.000100 -0.248790 
-0.025460 16.695050 -1.410080 -6.832257 -35.859537 0.860854 -14.839680 12.244945 3.291422 2.684220 -4.853257 -21.190868 -11.692092 11.737795 35.270581 -0.136401 7.608046 2.175699 0.532540 0.285380 0.074940 18.736692 -11.344446 2.380245 -1.729680 3.020947 -6.344084 -0.018582 -12.960303 62.358202 -1.663849 -10.749642 1.238899 0.385020 0.825340 0.211320 -5.079920 0.156448 -6.518415 16.451472 0.475787 5.920853 -9.501241 1.015824 8.247179 0.723916 -6.901977 -2.260834 -12.793252 13.148683 30.987854 -0.997750 8.555640 0.959410 -25.509870 7.962646 -1.946832 -44.052340 -3.163149 -8.145169 5.591967 -75.587430 -8.780091 -3.908524 3.310460 0.243690 0.638580 -0.472780 0.500460 22.332271 -5.008748 -0.353950 39.404254 0.348572 -7.663970 6.169085 33.162983 -0.084107 1.656301 -1.783346 -0.389910 0.370650 -0.084320 -0.117950 
